# xmcd
#
# Track frame offsets:
#	150
#	15119
#	33102
#	53066
#	61393
#	79116
#	95133
#	123183
#	156937
#	173982
#	190635
#
# Disc length: 2807 seconds
#
# Revision: 1
# Processed by: cddbd v1.5.1PL0 Copyright (c) Steve Scherf et al.
# Submitted via: audiograbber 1.83.01
#
DISCID=7d0af50b
DTITLE=Cuby And The Blizzards - Cuby's Blues CD2
DYEAR=1900
DGENRE=Blues
TTITLE0=Window Of My Eyes
TTITLE1=Crying Tears
TTITLE2=Little Red Rooster (with Eddie Boyd)
TTITLE3=Things I Remember
TTITLE4=Feel So Bad
TTITLE5=Nostalgic Toilet
TTITLE6=Just For Fun
TTITLE7=Gin House Blues
TTITLE8=Mr. Highway Man (with Eddie Boyd)
TTITLE9=Down The Road
TTITLE10=Back Home
EXTD=
EXTT0=
EXTT1=
EXTT2=
EXTT3=
EXTT4=
EXTT5=
EXTT6=
EXTT7=
EXTT8=
EXTT9=
EXTT10=
PLAYORDER=
